<svg width="30" height="30" viewBox="0 0 30 30" fill="none" xmlns="http://www.w3.org/2000/svg">
<path d="M2.47974 14.8653C2.48118 20.9583 6.91183 26.1462 12.9295 27.1011V18.4448H9.78728V14.8653H12.9332V12.1404C12.7926 10.8493 13.2336 9.56248 14.1367 8.62902C15.0397 7.69556 16.3113 7.2122 17.6064 7.31003C18.5359 7.32505 19.4632 7.40784 20.3807 7.55775V10.6034H18.8152C18.2762 10.5328 17.7344 10.7108 17.3423 11.0873C16.9501 11.4637 16.7502 11.9979 16.7988 12.5393V14.8653H20.2309L19.6822 18.446H16.7988V27.1011C23.3068 26.0726 27.8705 20.1289 27.1836 13.576C26.4967 7.02314 20.7997 2.15503 14.2199 2.49842C7.64005 2.84181 2.48078 8.2765 2.47974 14.8653Z" fill="#5C65FF"/>
</svg>
